<svg width="154" height="19" viewBox="0 0 154 19" fill="none" xmlns="http://www.w3.org/2000/svg">
<path d="M3.77031 19C3.19431 19 2.66631 18.856 2.18631 18.568C1.72231 18.28 1.34631 17.904 1.05831 17.44C0.786313 16.976 0.650313 16.456 0.650313 15.88V10.744H12.1943V8.272C12.1943 8.112 12.1383 7.976 12.0263 7.864C11.9143 7.736 11.7783 7.672 11.6183 7.672H0.650313V5.08H11.6903C12.2663 5.08 12.7863 5.224 13.2503 5.512C13.7303 5.784 14.1063 6.16 14.3783 6.64C14.6663 7.12 14.8103 7.64 14.8103 8.2V19H3.77031ZM3.84231 16.408H12.1943V13.168H3.24231V15.808C3.24231 15.968 3.29831 16.112 3.41031 16.24C3.53831 16.352 3.68231 16.408 3.84231 16.408ZM19.8462 19C19.2702 19 18.7502 18.856 18.2862 18.568C17.8222 18.28 17.4462 17.904 17.1582 17.44C16.8702 16.976 16.7262 16.456 16.7262 15.88V15.52H19.3182V15.808C19.3182 15.968 19.3742 16.112 19.4862 16.24C19.6142 16.352 19.7582 16.408 19.9182 16.408H27.6942C27.8542 16.408 27.9902 16.352 28.1022 16.24C28.2142 16.112 28.2702 15.968 28.2702 15.808V13.936C28.2702 13.776 28.2142 13.64 28.1022 13.528C27.9902 13.4 27.8542 13.336 27.6942 13.336H19.8462C19.2702 13.336 18.7502 13.2 18.2862 12.928C17.8222 12.64 17.4462 12.264 17.1582 11.8C16.8702 11.32 16.7262 10.792 16.7262 10.216V8.2C16.7262 7.624 16.8702 7.104 17.1582 6.64C17.4462 6.176 17.8222 5.8 18.2862 5.512C18.7502 5.224 19.2702 5.08 19.8462 5.08H27.7662C28.3422 5.08 28.8622 5.224 29.3262 5.512C29.8062 5.8 30.1822 6.176 30.4542 6.64C30.7422 7.104 30.8862 7.624 30.8862 8.2V8.56H28.2702V8.272C28.2702 8.112 28.2142 7.976 28.1022 7.864C27.9902 7.736 27.8542 7.672 27.6942 7.672H19.9182C19.7582 7.672 19.6142 7.736 19.4862 7.864C19.3742 7.976 19.3182 8.112 19.3182 8.272V10.144C19.3182 10.304 19.3742 10.448 19.4862 10.576C19.6142 10.688 19.7582 10.744 19.9182 10.744H27.7662C28.3422 10.744 28.8622 10.888 29.3262 11.176C29.8062 11.448 30.1822 11.824 30.4542 12.304C30.7422 12.768 30.8862 13.288 30.8862 13.864V15.88C30.8862 16.456 30.7422 16.976 30.4542 17.44C30.1822 17.904 29.8062 18.28 29.3262 18.568C28.8622 18.856 28.3422 19 27.7662 19H19.8462ZM36.4193 19C35.8433 19 35.3153 18.856 34.8353 18.568C34.3713 18.28 33.9953 17.904 33.7073 17.44C33.4353 16.976 33.2993 16.456 33.2993 15.88V0.688H35.8913V5.08H41.6033V7.672H35.8913V15.808C35.8913 15.968 35.9473 16.112 36.0593 16.24C36.1873 16.352 36.3313 16.408 36.4913 16.408H41.6033V19H36.4193ZM43.5644 19V8.2C43.5644 7.624 43.7084 7.104 43.9964 6.64C44.2844 6.176 44.6604 5.8 45.1244 5.512C45.6044 5.224 46.1244 5.08 46.6844 5.08H54.4604V7.672H46.7564C46.5964 7.672 46.4524 7.736 46.3244 7.864C46.2124 7.976 46.1564 8.112 46.1564 8.272V19H43.5644ZM59.0354 19C58.4594 19 57.9394 18.856 57.4754 18.568C57.0114 18.28 56.6354 17.904 56.3474 17.44C56.0594 16.976 55.9154 16.456 55.9154 15.88V8.2C55.9154 7.624 56.0594 7.104 56.3474 6.64C56.6354 6.176 57.0114 5.8 57.4754 5.512C57.9394 5.224 58.4594 5.08 59.0354 5.08H66.9554C67.5314 5.08 68.0514 5.224 68.5154 5.512C68.9954 5.784 69.3714 6.16 69.6434 6.64C69.9314 7.12 70.0754 7.64 70.0754 8.2V15.88C70.0754 16.456 69.9314 16.976 69.6434 17.44C69.3714 17.904 68.9954 18.28 68.5154 18.568C68.0514 18.856 67.5314 19 66.9554 19H59.0354ZM59.1074 16.408H66.8834C67.0434 16.408 67.1794 16.352 67.2914 16.24C67.4034 16.112 67.4594 15.968 67.4594 15.808V8.272C67.4594 8.112 67.4034 7.976 67.2914 7.864C67.1794 7.736 67.0434 7.672 66.8834 7.672H59.1074C58.9474 7.672 58.8034 7.736 58.6754 7.864C58.5634 7.976 58.5074 8.112 58.5074 8.272V15.808C58.5074 15.968 58.5634 16.112 58.6754 16.24C58.8034 16.352 58.9474 16.408 59.1074 16.408Z" fill="#27AE60"/>
<path d="M72.6046 19V5.08H90.3886C90.9806 5.08 91.5086 5.224 91.9726 5.512C92.4366 5.8 92.8046 6.176 93.0766 6.64C93.3646 7.104 93.5086 7.624 93.5086 8.2V19H90.9406V8.272C90.9406 8.112 90.8766 7.976 90.7486 7.864C90.6366 7.736 90.5006 7.672 90.3406 7.672H84.9886C84.8126 7.672 84.6686 7.736 84.5566 7.864C84.4446 7.976 84.3886 8.112 84.3886 8.272V19H81.7726V8.272C81.7726 8.112 81.7086 7.976 81.5806 7.864C81.4686 7.736 81.3326 7.672 81.1726 7.672H75.7966C75.6366 7.672 75.5006 7.736 75.3886 7.864C75.2766 7.976 75.2206 8.112 75.2206 8.272V19H72.6046ZM98.8563 19C98.2803 19 97.7523 18.856 97.2723 18.568C96.8083 18.28 96.4323 17.904 96.1443 17.44C95.8723 16.976 95.7363 16.456 95.7363 15.88V10.744H107.28V8.272C107.28 8.112 107.224 7.976 107.112 7.864C107 7.736 106.864 7.672 106.704 7.672H95.7363V5.08H106.776C107.352 5.08 107.872 5.224 108.336 5.512C108.816 5.784 109.192 6.16 109.464 6.64C109.752 7.12 109.896 7.64 109.896 8.2V19H98.8563ZM98.9283 16.408H107.28V13.168H98.3283V15.808C98.3283 15.968 98.3843 16.112 98.4963 16.24C98.6243 16.352 98.7683 16.408 98.9283 16.408ZM115.544 19C114.968 19 114.44 18.856 113.96 18.568C113.496 18.28 113.12 17.904 112.832 17.44C112.56 16.976 112.424 16.456 112.424 15.88V0.688H115.016V5.08H120.728V7.672H115.016V15.808C115.016 15.968 115.072 16.112 115.184 16.24C115.312 16.352 115.456 16.408 115.616 16.408H120.728V19H115.544ZM125.692 19C125.116 19 124.596 18.856 124.132 18.568C123.668 18.28 123.292 17.904 123.004 17.44C122.716 16.976 122.572 16.456 122.572 15.88V8.2C122.572 7.624 122.716 7.104 123.004 6.64C123.292 6.176 123.668 5.8 124.132 5.512C124.596 5.224 125.116 5.08 125.692 5.08H136.684V7.672H125.764C125.604 7.672 125.46 7.736 125.332 7.864C125.22 7.976 125.164 8.112 125.164 8.272V15.808C125.164 15.968 125.22 16.112 125.332 16.24C125.46 16.352 125.604 16.408 125.764 16.408H136.732V19H125.692ZM138.862 19V0.519999H141.454V5.08H149.902C150.462 5.08 150.974 5.224 151.438 5.512C151.918 5.8 152.302 6.176 152.59 6.64C152.878 7.104 153.022 7.624 153.022 8.2V19H150.43V8.272C150.43 8.112 150.366 7.976 150.238 7.864C150.126 7.736 149.99 7.672 149.83 7.672H142.054C141.894 7.672 141.75 7.736 141.622 7.864C141.51 7.976 141.454 8.112 141.454 8.272V19H138.862Z" fill="#BB00DA"/>
</svg>
