<svg width="263" height="64" viewBox="0 0 263 64" fill="none" xmlns="http://www.w3.org/2000/svg">
<g clip-path="url(#clip0_115_3)">
<rect width="263" height="64" fill="white"/>
<path d="M22.4055 46C21.5415 46 20.7495 45.784 20.0295 45.352C19.3335 44.92 18.7695 44.356 18.3375 43.66C17.9295 42.964 17.7255 42.184 17.7255 41.32V33.616H35.0415V29.908C35.0415 29.668 34.9575 29.464 34.7895 29.296C34.6215 29.104 34.4175 29.008 34.1775 29.008H17.7255V25.12H34.2855C35.1495 25.12 35.9295 25.336 36.6255 25.768C37.3455 26.176 37.9095 26.74 38.3175 27.46C38.7495 28.18 38.9655 28.96 38.9655 29.8V46H22.4055ZM22.5135 42.112H35.0415V37.252H21.6135V41.212C21.6135 41.452 21.6975 41.668 21.8655 41.86C22.0575 42.028 22.2735 42.112 22.5135 42.112ZM46.5193 46C45.6553 46 44.8753 45.784 44.1793 45.352C43.4833 44.92 42.9193 44.356 42.4873 43.66C42.0553 42.964 41.8393 42.184 41.8393 41.32V40.78H45.7273V41.212C45.7273 41.452 45.8113 41.668 45.9793 41.86C46.1713 42.028 46.3873 42.112 46.6273 42.112H58.2913C58.5313 42.112 58.7353 42.028 58.9033 41.86C59.0713 41.668 59.1553 41.452 59.1553 41.212V38.404C59.1553 38.164 59.0713 37.96 58.9033 37.792C58.7353 37.6 58.5313 37.504 58.2913 37.504H46.5193C45.6553 37.504 44.8753 37.3 44.1793 36.892C43.4833 36.46 42.9193 35.896 42.4873 35.2C42.0553 34.48 41.8393 33.688 41.8393 32.824V29.8C41.8393 28.936 42.0553 28.156 42.4873 27.46C42.9193 26.764 43.4833 26.2 44.1793 25.768C44.8753 25.336 45.6553 25.12 46.5193 25.12H58.3993C59.2633 25.12 60.0433 25.336 60.7393 25.768C61.4593 26.2 62.0233 26.764 62.4313 27.46C62.8633 28.156 63.0793 28.936 63.0793 29.8V30.34H59.1553V29.908C59.1553 29.668 59.0713 29.464 58.9033 29.296C58.7353 29.104 58.5313 29.008 58.2913 29.008H46.6273C46.3873 29.008 46.1713 29.104 45.9793 29.296C45.8113 29.464 45.7273 29.668 45.7273 29.908V32.716C45.7273 32.956 45.8113 33.172 45.9793 33.364C46.1713 33.532 46.3873 33.616 46.6273 33.616H58.3993C59.2633 33.616 60.0433 33.832 60.7393 34.264C61.4593 34.672 62.0233 35.236 62.4313 35.956C62.8633 36.652 63.0793 37.432 63.0793 38.296V41.32C63.0793 42.184 62.8633 42.964 62.4313 43.66C62.0233 44.356 61.4593 44.92 60.7393 45.352C60.0433 45.784 59.2633 46 58.3993 46H46.5193ZM71.379 46C70.515 46 69.723 45.784 69.003 45.352C68.307 44.92 67.743 44.356 67.311 43.66C66.903 42.964 66.699 42.184 66.699 41.32V18.532H70.587V25.12H79.155V29.008H70.587V41.212C70.587 41.452 70.671 41.668 70.839 41.86C71.031 42.028 71.247 42.112 71.487 42.112H79.155V46H71.379ZM82.0966 46V29.8C82.0966 28.936 82.3126 28.156 82.7446 27.46C83.1766 26.764 83.7406 26.2 84.4366 25.768C85.1566 25.336 85.9366 25.12 86.7766 25.12H98.4406V29.008H86.8846C86.6446 29.008 86.4286 29.104 86.2366 29.296C86.0686 29.464 85.9846 29.668 85.9846 29.908V46H82.0966ZM105.303 46C104.439 46 103.659 45.784 102.963 45.352C102.267 44.92 101.703 44.356 101.271 43.66C100.839 42.964 100.623 42.184 100.623 41.32V29.8C100.623 28.936 100.839 28.156 101.271 27.46C101.703 26.764 102.267 26.2 102.963 25.768C103.659 25.336 104.439 25.12 105.303 25.12H117.183C118.047 25.12 118.827 25.336 119.523 25.768C120.243 26.176 120.807 26.74 121.215 27.46C121.647 28.18 121.863 28.96 121.863 29.8V41.32C121.863 42.184 121.647 42.964 121.215 43.66C120.807 44.356 120.243 44.92 119.523 45.352C118.827 45.784 118.047 46 117.183 46H105.303ZM105.411 42.112H117.075C117.315 42.112 117.519 42.028 117.687 41.86C117.855 41.668 117.939 41.452 117.939 41.212V29.908C117.939 29.668 117.855 29.464 117.687 29.296C117.519 29.104 117.315 29.008 117.075 29.008H105.411C105.171 29.008 104.955 29.104 104.763 29.296C104.595 29.464 104.511 29.668 104.511 29.908V41.212C104.511 41.452 104.595 41.668 104.763 41.86C104.955 42.028 105.171 42.112 105.411 42.112Z" fill="#52A092"/>
<path d="M125.657 46V25.12H152.333C153.221 25.12 154.013 25.336 154.709 25.768C155.405 26.2 155.957 26.764 156.365 27.46C156.797 28.156 157.013 28.936 157.013 29.8V46H153.161V29.908C153.161 29.668 153.065 29.464 152.873 29.296C152.705 29.104 152.501 29.008 152.261 29.008H144.233C143.969 29.008 143.753 29.104 143.585 29.296C143.417 29.464 143.333 29.668 143.333 29.908V46H139.409V29.908C139.409 29.668 139.313 29.464 139.121 29.296C138.953 29.104 138.749 29.008 138.509 29.008H130.445C130.205 29.008 130.001 29.104 129.833 29.296C129.665 29.464 129.581 29.668 129.581 29.908V46H125.657ZM165.034 46C164.17 46 163.378 45.784 162.658 45.352C161.962 44.92 161.398 44.356 160.966 43.66C160.558 42.964 160.354 42.184 160.354 41.32V33.616H177.67V29.908C177.67 29.668 177.586 29.464 177.418 29.296C177.25 29.104 177.046 29.008 176.806 29.008H160.354V25.12H176.914C177.778 25.12 178.558 25.336 179.254 25.768C179.974 26.176 180.538 26.74 180.946 27.46C181.378 28.18 181.594 28.96 181.594 29.8V46H165.034ZM165.142 42.112H177.67V37.252H164.242V41.212C164.242 41.452 164.326 41.668 164.494 41.86C164.686 42.028 164.902 42.112 165.142 42.112ZM190.066 46C189.202 46 188.41 45.784 187.69 45.352C186.994 44.92 186.43 44.356 185.998 43.66C185.59 42.964 185.386 42.184 185.386 41.32V18.532H189.274V25.12H197.842V29.008H189.274V41.212C189.274 41.452 189.358 41.668 189.526 41.86C189.718 42.028 189.934 42.112 190.174 42.112H197.842V46H190.066ZM205.287 46C204.423 46 203.643 45.784 202.947 45.352C202.251 44.92 201.687 44.356 201.255 43.66C200.823 42.964 200.607 42.184 200.607 41.32V29.8C200.607 28.936 200.823 28.156 201.255 27.46C201.687 26.764 202.251 26.2 202.947 25.768C203.643 25.336 204.423 25.12 205.287 25.12H221.775V29.008H205.395C205.155 29.008 204.939 29.104 204.747 29.296C204.579 29.464 204.495 29.668 204.495 29.908V41.212C204.495 41.452 204.579 41.668 204.747 41.86C204.939 42.028 205.155 42.112 205.395 42.112H221.847V46H205.287ZM225.044 46V18.28H228.932V25.12H241.604C242.444 25.12 243.212 25.336 243.908 25.768C244.628 26.2 245.204 26.764 245.636 27.46C246.068 28.156 246.284 28.936 246.284 29.8V46H242.396V29.908C242.396 29.668 242.3 29.464 242.108 29.296C241.94 29.104 241.736 29.008 241.496 29.008H229.832C229.592 29.008 229.376 29.104 229.184 29.296C229.016 29.464 228.932 29.668 228.932 29.908V46H225.044Z" fill="#BB00DA"/>
<path d="M20.0295 45.352L17.92 48.7506L17.9456 48.7665L17.9715 48.782L20.0295 45.352ZM18.3375 43.66L14.8867 45.6829L14.9123 45.7265L14.9389 45.7695L18.3375 43.66ZM17.7255 33.616V29.616H13.7255V33.616H17.7255ZM35.0415 33.616V37.616H39.0415V33.616H35.0415ZM34.7895 29.296L31.7792 31.93L31.8669 32.0302L31.9611 32.1244L34.7895 29.296ZM17.7255 29.008H13.7255V33.008H17.7255V29.008ZM17.7255 25.12V21.12H13.7255V25.12H17.7255ZM36.6255 25.768L34.516 29.1666L34.5839 29.2087L34.6534 29.2481L36.6255 25.768ZM38.3175 27.46L34.8374 29.432L34.8619 29.4753L34.8875 29.518L38.3175 27.46ZM38.9655 46V50H42.9655V46H38.9655ZM35.0415 42.112V46.112H39.0415V42.112H35.0415ZM35.0415 37.252H39.0415V33.252H35.0415V37.252ZM21.6135 37.252V33.252H17.6135V37.252H21.6135ZM21.8655 41.86L18.8552 44.494L19.0308 44.6947L19.2315 44.8703L21.8655 41.86ZM22.4055 42C22.2444 42 22.1672 41.9698 22.0875 41.922L17.9715 48.782C19.3318 49.5982 20.8386 50 22.4055 50V42ZM22.1389 41.9534C21.9661 41.8462 21.8433 41.7233 21.736 41.5505L14.9389 45.7695C15.6957 46.9887 16.7008 47.9938 17.92 48.7506L22.1389 41.9534ZM21.7883 41.6371C21.7655 41.5982 21.7255 41.5251 21.7255 41.32H13.7255C13.7255 42.8429 14.0935 44.3298 14.8867 45.6829L21.7883 41.6371ZM21.7255 41.32V33.616H13.7255V41.32H21.7255ZM17.7255 37.616H35.0415V29.616H17.7255V37.616ZM39.0415 33.616V29.908H31.0415V33.616H39.0415ZM39.0415 29.908C39.0415 28.6192 38.5446 27.3942 37.6179 26.4676L31.9611 32.1244C31.7007 31.864 31.4539 31.5209 31.2798 31.098C31.106 30.6759 31.0415 30.2643 31.0415 29.908H39.0415ZM37.7998 26.662C36.9265 25.6639 35.6509 25.008 34.1775 25.008V33.008C33.7474 33.008 33.2721 32.918 32.8073 32.6993C32.3487 32.4835 32.0106 32.1945 31.7792 31.93L37.7998 26.662ZM34.1775 25.008H17.7255V33.008H34.1775V25.008ZM21.7255 29.008V25.12H13.7255V29.008H21.7255ZM17.7255 29.12H34.2855V21.12H17.7255V29.12ZM34.2855 29.12C34.4467 29.12 34.4887 29.1496 34.516 29.1666L38.7349 22.3694C37.3703 21.5224 35.8523 21.12 34.2855 21.12V29.12ZM34.6534 29.2481C34.7435 29.2991 34.7863 29.3419 34.8374 29.432L41.7976 25.488C41.0326 24.1381 39.9474 23.0528 38.5975 22.2879L34.6534 29.2481ZM34.8875 29.518C34.9464 29.6161 34.9655 29.6847 34.9655 29.8H42.9655C42.9655 28.2353 42.5526 26.7439 41.7475 25.402L34.8875 29.518ZM34.9655 29.8V46H42.9655V29.8H34.9655ZM38.9655 42H22.4055V50H38.9655V42ZM22.5135 46.112H35.0415V38.112H22.5135V46.112ZM39.0415 42.112V37.252H31.0415V42.112H39.0415ZM35.0415 33.252H21.6135V41.252H35.0415V33.252ZM17.6135 37.252V41.212H25.6135V37.252H17.6135ZM17.6135 41.212C17.6135 42.4853 18.0929 43.6228 18.8552 44.494L24.8758 39.226C25.0673 39.4448 25.2618 39.7372 25.4045 40.1042C25.5486 40.4749 25.6135 40.854 25.6135 41.212H17.6135ZM19.2315 44.8703C20.1027 45.6326 21.2402 46.112 22.5135 46.112V38.112C22.8715 38.112 23.2506 38.1768 23.6213 38.321C23.9883 38.4637 24.2807 38.6582 24.4995 38.8497L19.2315 44.8703ZM42.4873 43.66L39.0887 45.7695L39.0887 45.7695L42.4873 43.66ZM41.8393 40.78V36.78H37.8393V40.78H41.8393ZM45.7273 40.78H49.7273V36.78H45.7273V40.78ZM45.9793 41.86L42.969 44.494L43.1446 44.6947L43.3453 44.8703L45.9793 41.86ZM58.9033 41.86L61.7317 44.6884L61.8259 44.5943L61.9136 44.494L58.9033 41.86ZM58.9033 37.792L55.893 40.426L55.9807 40.5263L56.0749 40.6204L58.9033 37.792ZM44.1793 36.892L42.0698 40.2906L42.1128 40.3172L42.1564 40.3428L44.1793 36.892ZM42.4873 35.2L39.0573 37.258L39.0728 37.2838L39.0887 37.3095L42.4873 35.2ZM42.4873 27.46L39.0887 25.3505L39.0887 25.3505L42.4873 27.46ZM60.7393 25.768L58.6298 29.1666L58.6555 29.1825L58.6813 29.198L60.7393 25.768ZM62.4313 27.46L58.9805 29.4829L59.0061 29.5265L59.0327 29.5694L62.4313 27.46ZM63.0793 30.34V34.34H67.0793V30.34H63.0793ZM59.1553 30.34H55.1553V34.34H59.1553V30.34ZM58.9033 29.296L55.893 31.93L55.9807 32.0302L56.0749 32.1244L58.9033 29.296ZM45.9793 29.296L48.8077 32.1244L48.8077 32.1244L45.9793 29.296ZM45.9793 33.364L42.969 35.998L43.1446 36.1987L43.3453 36.3743L45.9793 33.364ZM60.7393 34.264L58.6298 37.6626L58.6977 37.7047L58.7673 37.7441L60.7393 34.264ZM62.4313 35.956L58.9512 37.928L58.9906 37.9976L59.0327 38.0655L62.4313 35.956ZM62.4313 43.66L59.0327 41.5505L59.0061 41.5935L58.9805 41.6371L62.4313 43.66ZM60.7393 45.352L58.6813 41.922L58.6555 41.9375L58.6298 41.9534L60.7393 45.352ZM46.5193 42C46.3581 42 46.3161 41.9704 46.2887 41.9534L42.0698 48.7506C43.4345 49.5976 44.9525 50 46.5193 50V42ZM46.2887 41.9534C46.116 41.8462 45.9931 41.7233 45.8859 41.5505L39.0887 45.7695C39.8455 46.9887 40.8506 47.9938 42.0698 48.7506L46.2887 41.9534ZM45.8859 41.5505C45.8689 41.5232 45.8393 41.4812 45.8393 41.32H37.8393C37.8393 42.8868 38.2417 44.4048 39.0887 45.7695L45.8859 41.5505ZM45.8393 41.32V40.78H37.8393V41.32H45.8393ZM41.8393 44.78H45.7273V36.78H41.8393V44.78ZM41.7273 40.78V41.212H49.7273V40.78H41.7273ZM41.7273 41.212C41.7273 42.4853 42.2067 43.6228 42.969 44.494L48.9896 39.226C49.1811 39.4448 49.3756 39.7372 49.5183 40.1042C49.6625 40.4749 49.7273 40.854 49.7273 41.212H41.7273ZM43.3453 44.8703C44.2165 45.6326 45.354 46.112 46.6273 46.112V38.112C46.9853 38.112 47.3644 38.1768 47.7351 38.321C48.1021 38.4637 48.3945 38.6582 48.6133 38.8497L43.3453 44.8703ZM46.6273 46.112H58.2913V38.112H46.6273V46.112ZM58.2913 46.112C59.5801 46.112 60.8051 45.6151 61.7317 44.6884L56.0749 39.0316C56.3353 38.7712 56.6784 38.5244 57.1013 38.3503C57.5234 38.1765 57.935 38.112 58.2913 38.112V46.112ZM61.9136 44.494C62.6759 43.6228 63.1553 42.4853 63.1553 41.212H55.1553C55.1553 40.854 55.2201 40.4749 55.3643 40.1042C55.507 39.7372 55.7015 39.4448 55.893 39.226L61.9136 44.494ZM63.1553 41.212V38.404H55.1553V41.212H63.1553ZM63.1553 38.404C63.1553 37.1152 62.6584 35.8902 61.7317 34.9636L56.0749 40.6204C55.8145 40.36 55.5677 40.0169 55.3936 39.594C55.2198 39.1719 55.1553 38.7603 55.1553 38.404H63.1553ZM61.9136 35.158C61.0403 34.1599 59.7647 33.504 58.2913 33.504V41.504C57.8612 41.504 57.3859 41.414 56.9211 41.1953C56.4625 40.9795 56.1244 40.6905 55.893 40.426L61.9136 35.158ZM58.2913 33.504H46.5193V41.504H58.2913V33.504ZM46.5193 33.504C46.3142 33.504 46.2411 33.464 46.2022 33.4412L42.1564 40.3428C43.5095 41.136 44.9964 41.504 46.5193 41.504V33.504ZM46.2887 33.4934C46.116 33.3862 45.9931 33.2633 45.8859 33.0905L39.0887 37.3095C39.8455 38.5287 40.8506 39.5338 42.0698 40.2906L46.2887 33.4934ZM45.9173 33.142C45.8695 33.0623 45.8393 32.9851 45.8393 32.824H37.8393C37.8393 34.3909 38.2411 35.8977 39.0573 37.258L45.9173 33.142ZM45.8393 32.824V29.8H37.8393V32.824H45.8393ZM45.8393 29.8C45.8393 29.6388 45.8689 29.5968 45.8859 29.5694L39.0887 25.3505C38.2417 26.7152 37.8393 28.2332 37.8393 29.8H45.8393ZM45.8859 29.5695C45.9931 29.3967 46.116 29.2738 46.2887 29.1666L42.0698 22.3694C40.8506 23.1262 39.8455 24.1313 39.0887 25.3505L45.8859 29.5695ZM46.2887 29.1666C46.3161 29.1496 46.3581 29.12 46.5193 29.12V21.12C44.9525 21.12 43.4345 21.5224 42.0698 22.3694L46.2887 29.1666ZM46.5193 29.12H58.3993V21.12H46.5193V29.12ZM58.3993 29.12C58.5605 29.12 58.6025 29.1496 58.6298 29.1666L62.8488 22.3694C61.4841 21.5224 59.9661 21.12 58.3993 21.12V29.12ZM58.6813 29.198C58.8508 29.2997 58.9256 29.3892 58.9805 29.4829L65.8821 25.4371C65.121 24.1388 64.0678 23.1003 62.7973 22.338L58.6813 29.198ZM59.0327 29.5694C59.0497 29.5968 59.0793 29.6388 59.0793 29.8H67.0793C67.0793 28.2332 66.6769 26.7152 65.8299 25.3505L59.0327 29.5694ZM59.0793 29.8V30.34H67.0793V29.8H59.0793ZM63.0793 26.34H59.1553V34.34H63.0793V26.34ZM63.1553 30.34V29.908H55.1553V30.34H63.1553ZM63.1553 29.908C63.1553 28.6192 62.6584 27.3942 61.7317 26.4676L56.0749 32.1244C55.8145 31.864 55.5677 31.5209 55.3936 31.098C55.2198 30.6759 55.1553 30.2643 55.1553 29.908H63.1553ZM61.9136 26.662C61.0403 25.6639 59.7647 25.008 58.2913 25.008V33.008C57.8612 33.008 57.3859 32.918 56.9211 32.6993C56.4625 32.4835 56.1244 32.1945 55.893 31.93L61.9136 26.662ZM58.2913 25.008H46.6273V33.008H58.2913V25.008ZM46.6273 25.008C45.1836 25.008 43.9856 25.6328 43.1509 26.4676L48.8077 32.1244C48.6076 32.3246 48.312 32.5565 47.9099 32.7352C47.4984 32.9181 47.0581 33.008 46.6273 33.008V25.008ZM43.1509 26.4676C42.2242 27.3942 41.7273 28.6192 41.7273 29.908H49.7273C49.7273 30.2643 49.6628 30.6759 49.489 31.098C49.3149 31.5209 49.0681 31.864 48.8077 32.1244L43.1509 26.4676ZM41.7273 29.908V32.716H49.7273V29.908H41.7273ZM41.7273 32.716C41.7273 33.9893 42.2067 35.1268 42.969 35.998L48.9896 30.73C49.1811 30.9488 49.3756 31.2412 49.5183 31.6082C49.6625 31.9789 49.7273 32.358 49.7273 32.716H41.7273ZM43.3453 36.3743C44.2165 37.1366 45.354 37.616 46.6273 37.616V29.616C46.9853 29.616 47.3644 29.6808 47.7351 29.825C48.1021 29.9677 48.3945 30.1622 48.6133 30.3537L43.3453 36.3743ZM46.6273 37.616H58.3993V29.616H46.6273V37.616ZM58.3993 37.616C58.5605 37.616 58.6025 37.6456 58.6298 37.6626L62.8488 30.8654C61.4841 30.0184 59.9661 29.616 58.3993 29.616V37.616ZM58.7673 37.7441C58.8574 37.7952 58.9001 37.8379 58.9512 37.928L65.9114 33.984C65.1464 32.6341 64.0612 31.5488 62.7113 30.7839L58.7673 37.7441ZM59.0327 38.0655C59.0497 38.0928 59.0793 38.1348 59.0793 38.296H67.0793C67.0793 36.7292 66.6769 35.2112 65.8299 33.8465L59.0327 38.0655ZM59.0793 38.296V41.32H67.0793V38.296H59.0793ZM59.0793 41.32C59.0793 41.4812 59.0497 41.5232 59.0327 41.5505L65.8299 45.7695C66.6769 44.4048 67.0793 42.8868 67.0793 41.32H59.0793ZM58.9805 41.6371C58.9256 41.7308 58.8508 41.8203 58.6813 41.922L62.7973 48.782C64.0678 48.0197 65.121 46.9812 65.8821 45.6829L58.9805 41.6371ZM58.6298 41.9534C58.6025 41.9704 58.5605 42 58.3993 42V50C59.9661 50 61.4841 49.5976 62.8488 48.7506L58.6298 41.9534ZM58.3993 42H46.5193V50H58.3993V42ZM69.003 45.352L66.8935 48.7506L66.9191 48.7665L66.945 48.782L69.003 45.352ZM67.311 43.66L63.8602 45.6829L63.8858 45.7265L63.9124 45.7695L67.311 43.66ZM66.699 18.532V14.532H62.699V18.532H66.699ZM70.587 18.532H74.587V14.532H70.587V18.532ZM70.587 25.12H66.587V29.12H70.587V25.12ZM79.155 25.12H83.155V21.12H79.155V25.12ZM79.155 29.008V33.008H83.155V29.008H79.155ZM70.587 29.008V25.008H66.587V29.008H70.587ZM70.839 41.86L67.8287 44.494L68.0043 44.6947L68.205 44.8703L70.839 41.86ZM79.155 42.112H83.155V38.112H79.155V42.112ZM79.155 46V50H83.155V46H79.155ZM71.379 42C71.2179 42 71.1407 41.9698 71.061 41.922L66.945 48.782C68.3053 49.5982 69.8121 50 71.379 50V42ZM71.1124 41.9534C70.9396 41.8462 70.8168 41.7233 70.7095 41.5505L63.9124 45.7695C64.6692 46.9887 65.6743 47.9938 66.8935 48.7506L71.1124 41.9534ZM70.7618 41.6371C70.739 41.5982 70.699 41.5251 70.699 41.32H62.699C62.699 42.8429 63.067 44.3298 63.8602 45.6829L70.7618 41.6371ZM70.699 41.32V18.532H62.699V41.32H70.699ZM66.699 22.532H70.587V14.532H66.699V22.532ZM66.587 18.532V25.12H74.587V18.532H66.587ZM70.587 29.12H79.155V21.12H70.587V29.12ZM75.155 25.12V29.008H83.155V25.12H75.155ZM79.155 25.008H70.587V33.008H79.155V25.008ZM66.587 29.008V41.212H74.587V29.008H66.587ZM66.587 41.212C66.587 42.4853 67.0664 43.6228 67.8287 44.494L73.8493 39.226C74.0408 39.4448 74.2353 39.7372 74.378 40.1042C74.5221 40.4749 74.587 40.854 74.587 41.212H66.587ZM68.205 44.8703C69.0762 45.6326 70.2137 46.112 71.487 46.112V38.112C71.845 38.112 72.2241 38.1768 72.5948 38.321C72.9618 38.4637 73.2542 38.6582 73.473 38.8497L68.205 44.8703ZM71.487 46.112H79.155V38.112H71.487V46.112ZM75.155 42.112V46H83.155V42.112H75.155ZM79.155 42H71.379V50H79.155V42ZM82.0966 46H78.0966V50H82.0966V46ZM82.7446 27.46L79.346 25.3505L79.346 25.3505L82.7446 27.46ZM84.4366 25.768L82.3786 22.338L82.3527 22.3535L82.3271 22.3694L84.4366 25.768ZM98.4406 25.12H102.441V21.12H98.4406V25.12ZM98.4406 29.008V33.008H102.441V29.008H98.4406ZM86.2366 29.296L89.065 32.1244L89.065 32.1244L86.2366 29.296ZM85.9846 46V50H89.9846V46H85.9846ZM86.0966 46V29.8H78.0966V46H86.0966ZM86.0966 29.8C86.0966 29.6388 86.1262 29.5968 86.1431 29.5694L79.346 25.3505C78.499 26.7152 78.0966 28.2332 78.0966 29.8H86.0966ZM86.1431 29.5695C86.2504 29.3967 86.3732 29.2738 86.546 29.1666L82.3271 22.3694C81.1079 23.1262 80.1028 24.1313 79.346 25.3505L86.1431 29.5695ZM86.4946 29.198C86.5926 29.1391 86.6612 29.12 86.7766 29.12V21.12C85.2119 21.12 83.7205 21.5329 82.3786 22.338L86.4946 29.198ZM86.7766 29.12H98.4406V21.12H86.7766V29.12ZM94.4406 25.12V29.008H102.441V25.12H94.4406ZM98.4406 25.008H86.8846V33.008H98.4406V25.008ZM86.8846 25.008C85.4409 25.008 84.2429 25.6328 83.4081 26.4676L89.065 32.1244C88.8649 32.3246 88.5693 32.5565 88.1671 32.7352C87.7557 32.9181 87.3154 33.008 86.8846 33.008V25.008ZM83.4082 26.4676C82.4815 27.3942 81.9846 28.6192 81.9846 29.908H89.9846C89.9846 30.2643 89.9201 30.6759 89.7463 31.098C89.5722 31.5209 89.3254 31.864 89.065 32.1244L83.4082 26.4676ZM81.9846 29.908V46H89.9846V29.908H81.9846ZM85.9846 42H82.0966V50H85.9846V42ZM102.963 45.352L100.854 48.7506L100.854 48.7506L102.963 45.352ZM101.271 43.66L104.67 41.5505L104.67 41.5505L101.271 43.66ZM101.271 27.46L97.8725 25.3505L97.8725 25.3505L101.271 27.46ZM102.963 25.768L100.854 22.3694L100.854 22.3694L102.963 25.768ZM119.523 25.768L117.414 29.1666L117.482 29.2087L117.551 29.2481L119.523 25.768ZM121.215 27.46L117.735 29.4321L117.76 29.4753L117.785 29.518L121.215 27.46ZM121.215 43.66L117.817 41.5505L117.79 41.5935L117.764 41.6371L121.215 43.66ZM119.523 45.352L117.465 41.922L117.439 41.9375L117.414 41.9534L119.523 45.352ZM117.687 41.86L120.516 44.6884L120.61 44.5943L120.697 44.494L117.687 41.86ZM117.687 29.296L114.677 31.93L114.764 32.0302L114.859 32.1244L117.687 29.296ZM104.763 29.296L107.592 32.1244L107.592 32.1244L104.763 29.296ZM104.763 41.86L101.753 44.494L101.928 44.6947L102.129 44.8703L104.763 41.86ZM105.303 42C105.142 42 105.1 41.9704 105.073 41.9534L100.854 48.7506C102.218 49.5976 103.736 50 105.303 50V42ZM105.073 41.9534C104.9 41.8462 104.777 41.7233 104.67 41.5505L97.8725 45.7695C98.6293 46.9887 99.6344 47.9938 100.854 48.7506L105.073 41.9534ZM104.67 41.5505C104.653 41.5232 104.623 41.4812 104.623 41.32H96.6231C96.6231 42.8868 97.0255 44.4048 97.8725 45.7695L104.67 41.5505ZM104.623 41.32V29.8H96.6231V41.32H104.623ZM104.623 29.8C104.623 29.6388 104.653 29.5968 104.67 29.5694L97.8725 25.3505C97.0255 26.7152 96.6231 28.2332 96.6231 29.8H104.623ZM104.67 29.5695C104.777 29.3967 104.9 29.2738 105.073 29.1666L100.854 22.3694C99.6344 23.1262 98.6293 24.1313 97.8725 25.3505L104.67 29.5695ZM105.073 29.1666C105.1 29.1496 105.142 29.12 105.303 29.12V21.12C103.736 21.12 102.218 21.5224 100.854 22.3694L105.073 29.1666ZM105.303 29.12H117.183V21.12H105.303V29.12ZM117.183 29.12C117.344 29.12 117.386 29.1496 117.414 29.1666L121.633 22.3694C120.268 21.5224 118.75 21.12 117.183 21.12V29.12ZM117.551 29.2481C117.641 29.2991 117.684 29.3419 117.735 29.4321L124.695 25.4879C123.93 24.1381 122.845 23.0529 121.495 22.2879L117.551 29.2481ZM117.785 29.518C117.844 29.6161 117.863 29.6847 117.863 29.8H125.863C125.863 28.2353 125.45 26.7439 124.645 25.402L117.785 29.518ZM117.863 29.8V41.32H125.863V29.8H117.863ZM117.863 41.32C117.863 41.4812 117.833 41.5232 117.817 41.5505L124.614 45.7695C125.461 44.4048 125.863 42.8868 125.863 41.32H117.863ZM117.764 41.6371C117.709 41.7308 117.635 41.8203 117.465 41.922L121.581 48.782C122.852 48.0197 123.905 46.9812 124.666 45.6829L117.764 41.6371ZM117.414 41.9534C117.386 41.9704 117.344 42 117.183 42V50C118.75 50 120.268 49.5976 121.633 48.7506L117.414 41.9534ZM117.183 42H105.303V50H117.183V42ZM105.411 46.112H117.075V38.112H105.411V46.112ZM117.075 46.112C118.364 46.112 119.589 45.6151 120.516 44.6884L114.859 39.0316C115.119 38.7712 115.462 38.5244 115.885 38.3503C116.307 38.1765 116.719 38.112 117.075 38.112V46.112ZM120.697 44.494C121.46 43.6228 121.939 42.4853 121.939 41.212H113.939C113.939 40.854 114.004 40.4749 114.148 40.1042C114.291 39.7372 114.485 39.4448 114.677 39.226L120.697 44.494ZM121.939 41.212V29.908H113.939V41.212H121.939ZM121.939 29.908C121.939 28.6192 121.442 27.3942 120.516 26.4676L114.859 32.1244C114.598 31.864 114.351 31.5209 114.177 31.098C114.004 30.6759 113.939 30.2643 113.939 29.908H121.939ZM120.697 26.662C119.824 25.6639 118.548 25.008 117.075 25.008V33.008C116.645 33.008 116.17 32.918 115.705 32.6993C115.246 32.4835 114.908 32.1945 114.677 31.93L120.697 26.662ZM117.075 25.008H105.411V33.008H117.075V25.008ZM105.411 25.008C103.967 25.008 102.769 25.6328 101.935 26.4676L107.592 32.1244C107.391 32.3246 107.096 32.5565 106.694 32.7352C106.282 32.9181 105.842 33.008 105.411 33.008V25.008ZM101.935 26.4676C101.008 27.3942 100.511 28.6192 100.511 29.908H108.511C108.511 30.2643 108.447 30.6759 108.273 31.098C108.099 31.5209 107.852 31.864 107.592 32.1244L101.935 26.4676ZM100.511 29.908V41.212H108.511V29.908H100.511ZM100.511 41.212C100.511 42.4853 100.99 43.6228 101.753 44.494L107.773 39.226C107.965 39.4448 108.159 39.7372 108.302 40.1042C108.446 40.4749 108.511 40.854 108.511 41.212H100.511ZM102.129 44.8703C103 45.6326 104.138 46.112 105.411 46.112V38.112C105.769 38.112 106.148 38.1768 106.519 38.321C106.886 38.4637 107.178 38.6582 107.397 38.8497L102.129 44.8703ZM125.657 46H121.657V50H125.657V46ZM125.657 25.12V21.12H121.657V25.12H125.657ZM154.709 25.768L156.818 22.3694L156.818 22.3694L154.709 25.768ZM156.365 27.46L152.914 29.4829L152.94 29.5265L152.966 29.5694L156.365 27.46ZM157.013 46V50H161.013V46H157.013ZM153.161 46H149.161V50H153.161V46ZM152.873 29.296L149.863 31.93L150.038 32.1307L150.239 32.3063L152.873 29.296ZM143.585 29.296L146.413 32.1244L146.507 32.0302L146.595 31.93L143.585 29.296ZM143.333 46V50H147.333V46H143.333ZM139.409 46H135.409V50H139.409V46ZM139.121 29.296L136.111 31.93L136.286 32.1307L136.487 32.3063L139.121 29.296ZM129.833 29.296L132.661 32.1244L132.755 32.0302L132.843 31.93L129.833 29.296ZM129.581 46V50H133.581V46H129.581ZM129.657 46V25.12H121.657V46H129.657ZM125.657 29.12H152.333V21.12H125.657V29.12ZM152.333 29.12C152.54 29.12 152.59 29.1606 152.599 29.1666L156.818 22.3694C155.436 21.5114 153.901 21.12 152.333 21.12V29.12ZM152.599 29.1666C152.752 29.2613 152.84 29.3565 152.914 29.4829L159.816 25.4371C159.074 24.1715 158.058 23.1387 156.818 22.3694L152.599 29.1666ZM152.966 29.5694C152.983 29.5968 153.013 29.6388 153.013 29.8H161.013C161.013 28.2332 160.61 26.7152 159.763 25.3505L152.966 29.5694ZM153.013 29.8V46H161.013V29.8H153.013ZM157.013 42H153.161V50H157.013V42ZM157.161 46V29.908H149.161V46H157.161ZM157.161 29.908C157.161 28.4346 156.505 27.159 155.507 26.2857L150.239 32.3063C149.974 32.0749 149.685 31.7368 149.47 31.2782C149.251 30.8134 149.161 30.3381 149.161 29.908H157.161ZM155.883 26.662C155.01 25.6639 153.734 25.008 152.261 25.008V33.008C151.831 33.008 151.355 32.918 150.891 32.6993C150.432 32.4835 150.094 32.1945 149.863 31.93L155.883 26.662ZM152.261 25.008H144.233V33.008H152.261V25.008ZM144.233 25.008C142.861 25.008 141.532 25.568 140.575 26.662L146.595 31.93C146.328 32.2358 145.961 32.5292 145.497 32.7352C145.037 32.9398 144.595 33.008 144.233 33.008V25.008ZM140.756 26.4676C139.83 27.3942 139.333 28.6192 139.333 29.908H147.333C147.333 30.2643 147.268 30.6759 147.095 31.098C146.92 31.5209 146.674 31.864 146.413 32.1244L140.756 26.4676ZM139.333 29.908V46H147.333V29.908H139.333ZM143.333 42H139.409V50H143.333V42ZM143.409 46V29.908H135.409V46H143.409ZM143.409 29.908C143.409 28.4346 142.753 27.159 141.755 26.2857L136.487 32.3063C136.222 32.0749 135.933 31.7368 135.718 31.2782C135.499 30.8134 135.409 30.3381 135.409 29.908H143.409ZM142.131 26.662C141.258 25.6639 139.982 25.008 138.509 25.008V33.008C138.079 33.008 137.603 32.918 137.139 32.6993C136.68 32.4835 136.342 32.1945 136.111 31.93L142.131 26.662ZM138.509 25.008H130.445V33.008H138.509V25.008ZM130.445 25.008C128.971 25.008 127.696 25.6639 126.823 26.662L132.843 31.93C132.612 32.1945 132.274 32.4835 131.815 32.6993C131.35 32.918 130.875 33.008 130.445 33.008V25.008ZM127.004 26.4676C126.078 27.3942 125.581 28.6192 125.581 29.908H133.581C133.581 30.2643 133.516 30.6759 133.343 31.098C133.168 31.5209 132.922 31.864 132.661 32.1244L127.004 26.4676ZM125.581 29.908V46H133.581V29.908H125.581ZM129.581 42H125.657V50H129.581V42ZM162.658 45.352L160.549 48.7506L160.575 48.7665L160.6 48.782L162.658 45.352ZM160.966 43.66L157.516 45.6829L157.541 45.7265L157.568 45.7695L160.966 43.66ZM160.354 33.616V29.616H156.354V33.616H160.354ZM177.67 33.616V37.616H181.67V33.616H177.67ZM177.418 29.296L174.408 31.93L174.496 32.0302L174.59 32.1244L177.418 29.296ZM160.354 29.008H156.354V33.008H160.354V29.008ZM160.354 25.12V21.12H156.354V25.12H160.354ZM179.254 25.768L177.145 29.1666L177.213 29.2087L177.282 29.2481L179.254 25.768ZM180.946 27.46L177.466 29.432L177.491 29.4753L177.516 29.518L180.946 27.46ZM181.594 46V50H185.594V46H181.594ZM177.67 42.112V46.112H181.67V42.112H177.67ZM177.67 37.252H181.67V33.252H177.67V37.252ZM164.242 37.252V33.252H160.242V37.252H164.242ZM164.494 41.86L161.484 44.494L161.66 44.6947L161.86 44.8703L164.494 41.86ZM165.034 42C164.873 42 164.796 41.9698 164.716 41.922L160.6 48.782C161.961 49.5982 163.467 50 165.034 50V42ZM164.768 41.9534C164.595 41.8462 164.472 41.7233 164.365 41.5505L157.568 45.7695C158.325 46.9887 159.33 47.9938 160.549 48.7506L164.768 41.9534ZM164.417 41.6371C164.394 41.5982 164.354 41.5251 164.354 41.32H156.354C156.354 42.8429 156.722 44.3298 157.516 45.6829L164.417 41.6371ZM164.354 41.32V33.616H156.354V41.32H164.354ZM160.354 37.616H177.67V29.616H160.354V37.616ZM181.67 33.616V29.908H173.67V33.616H181.67ZM181.67 29.908C181.67 28.6192 181.173 27.3942 180.247 26.4676L174.59 32.1244C174.33 31.864 174.083 31.5209 173.909 31.098C173.735 30.6759 173.67 30.2643 173.67 29.908H181.67ZM180.429 26.662C179.555 25.6639 178.28 25.008 176.806 25.008V33.008C176.376 33.008 175.901 32.918 175.436 32.6993C174.978 32.4835 174.639 32.1945 174.408 31.93L180.429 26.662ZM176.806 25.008H160.354V33.008H176.806V25.008ZM164.354 29.008V25.12H156.354V29.008H164.354ZM160.354 29.12H176.914V21.12H160.354V29.12ZM176.914 29.12C177.076 29.12 177.118 29.1496 177.145 29.1666L181.364 22.3694C179.999 21.5224 178.481 21.12 176.914 21.12V29.12ZM177.282 29.2481C177.372 29.2991 177.415 29.3419 177.466 29.432L184.426 25.488C183.662 24.1381 182.576 23.0528 181.226 22.2879L177.282 29.2481ZM177.516 29.518C177.575 29.6161 177.594 29.6847 177.594 29.8H185.594C185.594 28.2353 185.182 26.7439 184.376 25.402L177.516 29.518ZM177.594 29.8V46H185.594V29.8H177.594ZM181.594 42H165.034V50H181.594V42ZM165.142 46.112H177.67V38.112H165.142V46.112ZM181.67 42.112V37.252H173.67V42.112H181.67ZM177.67 33.252H164.242V41.252H177.67V33.252ZM160.242 37.252V41.212H168.242V37.252H160.242ZM160.242 41.212C160.242 42.4853 160.722 43.6228 161.484 44.494L167.505 39.226C167.696 39.4448 167.891 39.7372 168.033 40.1042C168.178 40.4749 168.242 40.854 168.242 41.212H160.242ZM161.86 44.8703C162.732 45.6326 163.869 46.112 165.142 46.112V38.112C165.5 38.112 165.88 38.1768 166.25 38.321C166.617 38.4637 166.91 38.6582 167.128 38.8497L161.86 44.8703ZM187.69 45.352L185.581 48.7506L185.607 48.7665L185.633 48.782L187.69 45.352ZM185.998 43.66L182.548 45.6829L182.573 45.7265L182.6 45.7695L185.998 43.66ZM185.386 18.532V14.532H181.386V18.532H185.386ZM189.274 18.532H193.274V14.532H189.274V18.532ZM189.274 25.12H185.274V29.12H189.274V25.12ZM197.842 25.12H201.842V21.12H197.842V25.12ZM197.842 29.008V33.008H201.842V29.008H197.842ZM189.274 29.008V25.008H185.274V29.008H189.274ZM189.526 41.86L186.516 44.494L186.692 44.6947L186.892 44.8703L189.526 41.86ZM197.842 42.112H201.842V38.112H197.842V42.112ZM197.842 46V50H201.842V46H197.842ZM190.066 42C189.905 42 189.828 41.9698 189.748 41.922L185.633 48.782C186.993 49.5982 188.5 50 190.066 50V42ZM189.8 41.9534C189.627 41.8462 189.504 41.7233 189.397 41.5505L182.6 45.7695C183.357 46.9887 184.362 47.9938 185.581 48.7506L189.8 41.9534ZM189.449 41.6371C189.426 41.5982 189.386 41.5251 189.386 41.32H181.386C181.386 42.8429 181.755 44.3298 182.548 45.6829L189.449 41.6371ZM189.386 41.32V18.532H181.386V41.32H189.386ZM185.386 22.532H189.274V14.532H185.386V22.532ZM185.274 18.532V25.12H193.274V18.532H185.274ZM189.274 29.12H197.842V21.12H189.274V29.12ZM193.842 25.12V29.008H201.842V25.12H193.842ZM197.842 25.008H189.274V33.008H197.842V25.008ZM185.274 29.008V41.212H193.274V29.008H185.274ZM185.274 41.212C185.274 42.4853 185.754 43.6228 186.516 44.494L192.537 39.226C192.728 39.4448 192.923 39.7372 193.066 40.1042C193.21 40.4749 193.274 40.854 193.274 41.212H185.274ZM186.892 44.8703C187.764 45.6326 188.901 46.112 190.174 46.112V38.112C190.532 38.112 190.912 38.1768 191.282 38.321C191.649 38.4637 191.942 38.6582 192.161 38.8497L186.892 44.8703ZM190.174 46.112H197.842V38.112H190.174V46.112ZM193.842 42.112V46H201.842V42.112H193.842ZM197.842 42H190.066V50H197.842V42ZM202.947 45.352L200.838 48.7506L200.838 48.7506L202.947 45.352ZM201.255 43.66L204.654 41.5505L204.654 41.5505L201.255 43.66ZM201.255 27.46L197.857 25.3505L197.857 25.3505L201.255 27.46ZM202.947 25.768L200.838 22.3694L200.838 22.3694L202.947 25.768ZM221.775 25.12H225.775V21.12H221.775V25.12ZM221.775 29.008V33.008H225.775V29.008H221.775ZM204.747 29.296L207.576 32.1244L207.576 32.1244L204.747 29.296ZM204.747 41.86L201.737 44.494L201.913 44.6947L202.113 44.8703L204.747 41.86ZM221.847 42.112H225.847V38.112H221.847V42.112ZM221.847 46V50H225.847V46H221.847ZM205.287 42C205.126 42 205.084 41.9704 205.057 41.9534L200.838 48.7506C202.203 49.5976 203.721 50 205.287 50V42ZM205.057 41.9534C204.884 41.8462 204.761 41.7233 204.654 41.5505L197.857 45.7695C198.614 46.9887 199.619 47.9938 200.838 48.7506L205.057 41.9534ZM204.654 41.5505C204.637 41.5232 204.607 41.4812 204.607 41.32H196.607C196.607 42.8868 197.01 44.4048 197.857 45.7695L204.654 41.5505ZM204.607 41.32V29.8H196.607V41.32H204.607ZM204.607 29.8C204.607 29.6388 204.637 29.5968 204.654 29.5694L197.857 25.3505C197.01 26.7152 196.607 28.2332 196.607 29.8H204.607ZM204.654 29.5695C204.761 29.3967 204.884 29.2738 205.057 29.1666L200.838 22.3694C199.619 23.1262 198.614 24.1313 197.857 25.3505L204.654 29.5695ZM205.057 29.1666C205.084 29.1496 205.126 29.12 205.287 29.12V21.12C203.721 21.12 202.203 21.5224 200.838 22.3694L205.057 29.1666ZM205.287 29.12H221.775V21.12H205.287V29.12ZM217.775 25.12V29.008H225.775V25.12H217.775ZM221.775 25.008H205.395V33.008H221.775V25.008ZM205.395 25.008C203.952 25.008 202.754 25.6328 201.919 26.4676L207.576 32.1244C207.376 32.3246 207.08 32.5565 206.678 32.7352C206.267 32.9181 205.826 33.008 205.395 33.008V25.008ZM201.919 26.4676C200.992 27.3942 200.495 28.6192 200.495 29.908H208.495C208.495 30.2643 208.431 30.6759 208.257 31.098C208.083 31.5209 207.836 31.864 207.576 32.1244L201.919 26.4676ZM200.495 29.908V41.212H208.495V29.908H200.495ZM200.495 41.212C200.495 42.4853 200.975 43.6228 201.737 44.494L207.758 39.226C207.949 39.4448 208.144 39.7372 208.286 40.1042C208.431 40.4749 208.495 40.854 208.495 41.212H200.495ZM202.113 44.8703C202.985 45.6326 204.122 46.112 205.395 46.112V38.112C205.753 38.112 206.133 38.1768 206.503 38.321C206.87 38.4637 207.163 38.6582 207.381 38.8497L202.113 44.8703ZM205.395 46.112H221.847V38.112H205.395V46.112ZM217.847 42.112V46H225.847V42.112H217.847ZM221.847 42H205.287V50H221.847V42ZM225.044 46H221.044V50H225.044V46ZM225.044 18.28V14.28H221.044V18.28H225.044ZM228.932 18.28H232.932V14.28H228.932V18.28ZM228.932 25.12H224.932V29.12H228.932V25.12ZM243.908 25.768L241.798 29.1666L241.824 29.1825L241.85 29.198L243.908 25.768ZM245.636 27.46L249.034 25.3505L249.034 25.3505L245.636 27.46ZM246.284 46V50H250.284V46H246.284ZM242.396 46H238.396V50H242.396V46ZM242.108 29.296L239.097 31.93L239.273 32.1307L239.474 32.3063L242.108 29.296ZM229.184 29.296L232.012 32.1244L232.012 32.1244L229.184 29.296ZM228.932 46V50H232.932V46H228.932ZM229.044 46V18.28H221.044V46H229.044ZM225.044 22.28H228.932V14.28H225.044V22.28ZM224.932 18.28V25.12H232.932V18.28H224.932ZM228.932 29.12H241.604V21.12H228.932V29.12ZM241.604 29.12C241.718 29.12 241.752 29.1381 241.798 29.1666L246.017 22.3694C244.671 21.5339 243.169 21.12 241.604 21.12V29.12ZM241.85 29.198C242.038 29.3112 242.149 29.4278 242.237 29.5695L249.034 25.3505C248.258 24.1002 247.217 23.0888 245.966 22.338L241.85 29.198ZM242.237 29.5694C242.254 29.5968 242.284 29.6388 242.284 29.8H250.284C250.284 28.2332 249.881 26.7152 249.034 25.3505L242.237 29.5694ZM242.284 29.8V46H250.284V29.8H242.284ZM246.284 42H242.396V50H246.284V42ZM246.396 46V29.908H238.396V46H246.396ZM246.396 29.908C246.396 28.4346 245.74 27.159 244.742 26.2857L239.474 32.3063C239.209 32.0749 238.92 31.7368 238.704 31.2782C238.486 30.8134 238.396 30.3381 238.396 29.908H246.396ZM245.118 26.662C244.245 25.6639 242.969 25.008 241.496 25.008V33.008C241.066 33.008 240.59 32.918 240.125 32.6993C239.667 32.4835 239.329 32.1945 239.097 31.93L245.118 26.662ZM241.496 25.008H229.832V33.008H241.496V25.008ZM229.832 25.008C228.388 25.008 227.19 25.6328 226.355 26.4676L232.012 32.1244C231.812 32.3246 231.516 32.5565 231.114 32.7352C230.703 32.9181 230.262 33.008 229.832 33.008V25.008ZM226.355 26.4676C225.428 27.3942 224.932 28.6192 224.932 29.908H232.932C232.932 30.2643 232.867 30.6759 232.693 31.098C232.519 31.5209 232.272 31.864 232.012 32.1244L226.355 26.4676ZM224.932 29.908V46H232.932V29.908H224.932ZM228.932 42H225.044V50H228.932V42Z" fill="url(#paint0_linear_115_3)"/>
</g>
<defs>
<linearGradient id="paint0_linear_115_3" x1="131.5" y1="16" x2="131.5" y2="48" gradientUnits="userSpaceOnUse">
<stop stop-color="#BB00DA"/>
<stop offset="1" stop-color="#8000FF" stop-opacity="0.5"/>
</linearGradient>
<clipPath id="clip0_115_3">
<rect width="263" height="64" fill="white"/>
</clipPath>
</defs>
</svg>
